<svg xmlns="http://www.w3.org/2000/svg" width="32" height="35" viewBox="0 0 32 35">
  <metadata><?xpacket begin="﻿" id="W5M0MpCehiHzreSzNTczkc9d"?>
<x:xmpmeta xmlns:x="adobe:ns:meta/" x:xmptk="Adobe XMP Core 5.6-c138 79.159824, 2016/09/14-01:09:01        ">
   <rdf:RDF xmlns:rdf="http://www.w3.org/1999/02/22-rdf-syntax-ns#">
      <rdf:Description rdf:about=""/>
   </rdf:RDF>
</x:xmpmeta>
                                                                                                    
                                                                                                    
                                                                                                    
                                                                                                    
                                                                                                    
                                                                                                    
                                                                                                    
                                                                                                    
                                                                                                    
                                                                                                    
                                                                                                    
                                                                                                    
                                                                                                    
                                                                                                    
                                                                                                    
                                                                                                    
                                                                                                    
                                                                                                    
                                                                                                    
                                                                                                    
                           
<?xpacket end="w"?></metadata>
<defs>
    <style>
      .cls-1 {
        fill: #fff;
        fill-rule: evenodd;
      }
    </style>
  </defs>
  <path id="Forma_1" data-name="Forma 1" class="cls-1" d="M770.036,564.159l-24.2-13.652a3.941,3.941,0,0,0-3.892.012A3.85,3.85,0,0,0,740,553.847v27.305a3.85,3.85,0,0,0,1.942,3.328,3.939,3.939,0,0,0,3.891.012l24.2-13.652A3.823,3.823,0,0,0,770.036,564.159Zm-10.488-3.228-3.323,4.568-7.948-10.926Zm-15.8,21.722a1.544,1.544,0,0,1-.617-0.191,1.514,1.514,0,0,1-.764-1.31V553.847a1.514,1.514,0,0,1,.764-1.31,1.555,1.555,0,0,1,.615-0.194L754.77,567.5Zm4.531-2.227,7.948-10.926,3.323,4.568Zm20.585-11.612-7.25,4.09-3.932-5.4,3.932-5.4,7.25,4.09A1.5,1.5,0,0,1,768.862,568.814Z" transform="translate(-740 -550)"/>
</svg>
