<svg xmlns="http://www.w3.org/2000/svg" width="38" height="34" viewBox="0 0 38 34">
  <metadata><?xpacket begin="﻿" id="W5M0MpCehiHzreSzNTczkc9d"?>
<x:xmpmeta xmlns:x="adobe:ns:meta/" x:xmptk="Adobe XMP Core 5.6-c138 79.159824, 2016/09/14-01:09:01        ">
   <rdf:RDF xmlns:rdf="http://www.w3.org/1999/02/22-rdf-syntax-ns#">
      <rdf:Description rdf:about=""/>
   </rdf:RDF>
</x:xmpmeta>
                                                                                                    
                                                                                                    
                                                                                                    
                                                                                                    
                                                                                                    
                                                                                                    
                                                                                                    
                                                                                                    
                                                                                                    
                                                                                                    
                                                                                                    
                                                                                                    
                                                                                                    
                                                                                                    
                                                                                                    
                                                                                                    
                                                                                                    
                                                                                                    
                                                                                                    
                                                                                                    
                           
<?xpacket end="w"?></metadata>
<defs>
    <style>
      .cls-1 {
        fill: #fff;
        fill-rule: evenodd;
      }
    </style>
  </defs>
  <path id="Forma_1" data-name="Forma 1" class="cls-1" d="M489,571.829V566.7a0.861,0.861,0,0,1,.863-0.854h9.112l-3.967,6.838h-5.145A0.86,0.86,0,0,1,489,571.829Zm6.491,10.5-2.908,1.96c-0.391.265-.668,0.1-0.614-0.371l0.388-3.352a0.528,0.528,0,0,1,.847-0.425l2.25,1.279A0.494,0.494,0,0,1,495.491,582.331Zm0.7-1.89-2.25-1.278a0.849,0.849,0,0,1-.318-1.166l10.421-17.967a0.87,0.87,0,0,1,1.181-.315l2.25,1.276a0.854,0.854,0,0,1,.317,1.168l-10.42,17.968A0.873,0.873,0,0,1,496.189,580.441Zm7.931-7.757,3.967-6.838h2.285l3.221,6.838H504.12Zm12.921,2.041c-0.9-.448-5.388-10.7-6.537-13.374S505.878,551.557,507,551c0.8-.4,3.67,5.209,5.822,8.575s6.643,12.044,7.2,13.032-0.53,1.818-1.13,2.065A1.745,1.745,0,0,1,517.041,574.725Zm2.949,4.712-1.356-2.121a0.836,0.836,0,0,1,.32-1.219l1.292-.657a0.956,0.956,0,0,1,1.268.417l1.07,2.037a1,1,0,0,1-.361,1.312l-0.924.547A0.976,0.976,0,0,1,519.99,579.437ZM524.979,585c-0.283-.9-2.446-0.958-3.414-2.311a1.539,1.539,0,0,1,.169-2.364C525.661,578.134,524.979,585,524.979,585ZM527,571.829a0.86,0.86,0,0,1-.864.855h-4.561a2.582,2.582,0,0,0-.269-0.775c-0.119-.21-0.419-0.777-0.837-1.569-0.6-1.141-1.471-2.774-2.4-4.494h8.066a0.862,0.862,0,0,1,.864.854v5.129h0Z" transform="translate(-489 -551)"/>
</svg>
